<svg aria-hidden="true" style="position:absolute;width:0;height:0;overflow:hidden" xmlns="http://www.w3.org/2000/svg">
    <defs>
        <symbol id="icon-location" viewBox="0 0 32 32">
            <path stroke-linejoin="round" stroke-linecap="round" stroke-width="2.6"
                d="M28 13.333c0 9.333-12 17.333-12 17.333s-12-8-12-17.333a12.003 12.003 0 0 1 12-12 12.003 12.003 0 0 1 12 12z" />
            <path stroke-linejoin="round" stroke-linecap="round" stroke-width="2.6"
                d="M16 17.333a4 4 0 1 0 0-8 4 4 0 0 0 0 8z" />
        </symbol>
        <symbol id="icon-star" viewBox="0 0 32 32">
            <path fill="#ffc531" style="fill:var(--color1, #ffc531);stroke:var(--color1, #ffc531)" stroke="#ffc531"
                stroke-width="2.4"
                d="M12.4 9.394 16 2.572l3.6 6.822a2.2 2.2 0 0 0 1.571 1.141l7.601 1.315-5.376 5.532a2.2 2.2 0 0 0-.6 1.846l1.098 7.635-6.922-3.404a2.199 2.199 0 0 0-1.941 0l-6.922 3.404 1.098-7.635a2.2 2.2 0 0 0-.6-1.846L3.231 11.85l7.601-1.315a2.202 2.202 0 0 0 1.571-1.141z" />
        </symbol>
        <symbol id="icon-heart-favorite" viewBox="0 0 32 32">
            <path fill="#e44848" style="fill:var(--color2, #e44848);stroke:var(--color2, #e44848)" stroke="#e44848"
                stroke-linejoin="round" stroke-linecap="round" stroke-width="3.067"
                d="M27.787 6.147a7.326 7.326 0 0 0-10.373 0L16.001 7.56l-1.413-1.413a7.333 7.333 0 0 0-10.374 0 7.333 7.333 0 0 0 0 10.374l11.787 11.787 11.787-11.787a7.345 7.345 0 0 0 2.15-5.187 7.33 7.33 0 0 0-2.15-5.187z" />
        </symbol>
    </defs>
</svg>