<svg aria-hidden="true" style="position:absolute;width:0;height:0;overflow:hidden" xmlns="http://www.w3.org/2000/svg">
    <defs>
        <symbol id="icon-ac" viewBox="0 0 32 32">
            <path
                d="M15.504 3.2c-1.501 0-2.956.513-4.117 1.45S9.431 6.891 9.136 8.34l-.116.575a.991.991 0 0 0 .777 1.191c.132.026.267.025.399-.001s.256-.079.366-.155a.992.992 0 0 0 .418-.65l.118-.573c.222-1.075.84-2.03 1.737-2.681s2.006-.951 3.114-.843c1.108.108 2.136.618 2.884 1.43S19.997 8.501 20 9.598c0 1.175-.474 2.302-1.318 3.134s-1.988 1.298-3.182 1.299H1c-.265 0-.52.104-.707.288S0 14.754 0 15.015c0 .261.105.512.293.696s.442.288.707.288h14.5c1.696-.041 3.309-.733 4.494-1.928s1.849-2.799 1.849-4.47-.662-3.275-1.846-4.471a6.55 6.55 0 0 0-4.492-1.931zM27 12.062c-1.326 0-2.598.519-3.536 1.442S22 15.679 22 16.985c0 .261.105.512.293.696a1.011 1.011 0 0 0 1.414 0 .976.976 0 0 0 .293-.696c0-.584.176-1.155.506-1.641s.798-.864 1.346-1.088a3.038 3.038 0 0 1 3.269.64c.42.413.705.939.821 1.512s.056 1.167-.171 1.707-.612 1.001-1.105 1.326-1.073.498-1.667.498h-26c-.265 0-.52.104-.707.288s-.293.435-.293.696c0 .261.105.512.293.696s.442.288.707.288h19.5c.663.001 1.298.262 1.766.724s.73 1.089.729 1.742c-.001.653-.266 1.279-.736 1.739s-1.106.719-1.769.717c-.597 0-1.175-.207-1.632-.587s-.762-.905-.862-1.485l-.01-.059a.966.966 0 0 0-.398-.66 1.017 1.017 0 0 0-1.129-.039.991.991 0 0 0-.444.631.976.976 0 0 0-.002.392l.01.059c.178 1.04.724 1.984 1.542 2.664s1.854 1.054 2.924 1.054c1.195 0 2.341-.466 3.186-1.297s1.322-1.958 1.324-3.134c0-.912-.28-1.759-.758-2.462h2.758c1.326 0 2.598-.519 3.536-1.442s1.464-2.176 1.464-3.481c0-1.306-.527-2.558-1.464-3.481s-2.209-1.442-3.536-1.442z" />
            <path
                d="m15.504 3.2.198-7.998-.1-.002h-.1l.002 8zM9.136 8.34 1.297 6.745l-.003.013L9.136 8.34zm-.116.575 7.78 1.865.034-.141.029-.142-7.842-1.582zm1.96.386L3.144 7.687l-.03.147-.025.148L10.98 9.3zm.118-.573zm8.902.87h8v-.02l-8 .02zm-4.5 4.433v8h.004l-.004-8zM0 15.015zM15.5 16v8h.096l.096-.002L15.499 16zm8.5.985zM0 20.923zm20.5.985.016-8H20.5v8zm-.01 4.923.016-8h-.021l.006 8zm-2.494-2.072-7.888 1.335.002.013.002.013 7.883-1.362zm-.01-.059-7.925 1.091.017.123.021.122 7.888-1.335zm-1.972.323 7.888-1.335-.02-.119-.024-.119-7.844 1.573zm.01.059-7.888 1.335.002.014 7.885-1.349zM20.49 28.8l.004-8h-.005l.001 8zM25 24.369l8 .014v-.014h-8zm-.758-2.461v-8H9.128l8.498 12.498 6.616-4.498zM15.502-4.8a14.555 14.555 0 0 0-9.139 3.224l10.049 12.451a1.44 1.44 0 0 1-.906.325l-.004-16zM6.363-1.576a14.38 14.38 0 0 0-5.066 8.32l15.679 3.19c-.08.392-.29.719-.564.94L6.363-1.577zM1.294 6.758l-.116.575 15.684 3.164.116-.575L1.294 6.758zm-.054.292a8.974 8.974 0 0 0-.115 3.627l15.764-2.74a7.037 7.037 0 0 1-.09 2.843L1.24 7.05zm-.114 3.627a8.97 8.97 0 0 0 1.325 3.366l13.402-8.74c.518.794.872 1.69 1.037 2.634l-15.764 2.74zm1.325 3.366a8.976 8.976 0 0 0 2.518 2.552l8.922-13.282a7.005 7.005 0 0 1 1.962 1.99l-13.402 8.74zm2.518 2.552a9.012 9.012 0 0 0 3.283 1.361l3.091-15.699a6.995 6.995 0 0 1 2.548 1.056L4.969 16.595zm3.282 1.361a9.032 9.032 0 0 0 3.54-.011L8.599 2.267a6.996 6.996 0 0 1 2.743-.009L8.251 17.957zm3.541-.012a9.008 9.008 0 0 0 3.274-1.382L6.058 3.338a6.983 6.983 0 0 1 2.541-1.073l3.192 15.678zm3.274-1.382a8.994 8.994 0 0 0 2.502-2.569L4.109 5.341a7.01 7.01 0 0 1 1.95-2.003l9.008 13.224zm2.502-2.569a8.993 8.993 0 0 0 1.303-3.375L3.09 7.982a7.026 7.026 0 0 1 1.019-2.641l13.459 8.652zm1.248-3.079.118-.573L3.263 7.114l-.118.573 15.671 3.227zm.117-.57a3.577 3.577 0 0 1-1.396 2.175L8.132-.425a12.414 12.414 0 0 0-4.869 7.537l15.67 3.233zm-1.396 2.175a3.452 3.452 0 0 1-2.367.647l1.557-15.924A12.544 12.544 0 0 0 8.133-.425l9.405 12.944zm-2.367.647a3.475 3.475 0 0 1-2.218-1.11L24.715 1.21a12.522 12.522 0 0 0-7.988-3.969L15.17 13.165zm-2.219-1.11A3.61 3.61 0 0 1 12 9.618l16-.04a12.389 12.389 0 0 0-3.286-8.368L12.951 12.056zM12 9.598c0-.986.399-1.907 1.068-2.566l11.228 11.399A12.398 12.398 0 0 0 28 9.598H12zm1.068-2.566a3.465 3.465 0 0 1 2.428-1.002l.007 16a12.535 12.535 0 0 0 8.793-3.6L13.068 7.031zM15.5 6.031H1v16h14.5v-16zm-14.5 0a9.008 9.008 0 0 0-6.32 2.588L5.906 20.02A6.99 6.99 0 0 1 1 22.031v-16zm-6.32 2.588A8.979 8.979 0 0 0-8 15.016H8a7.021 7.021 0 0 1-2.094 5.004L-5.32 8.619zM-8 15.015c0 2.423.979 4.722 2.68 6.397L5.906 10.011A7.023 7.023 0 0 1 8 15.015H-8zm2.68 6.397A9.008 9.008 0 0 0 1 24V8a6.99 6.99 0 0 1 4.906 2.011L-5.32 21.412zM1 24h14.5V8H1v16zm14.693-.002a14.545 14.545 0 0 0 9.982-4.294L14.312 8.44a1.45 1.45 0 0 1 .995-.437l.386 15.995zm9.982-4.294a14.35 14.35 0 0 0 4.168-10.1l-16-.005c0-.456.183-.87.47-1.16l11.363 11.264zm4.168-10.1A14.353 14.353 0 0 0 25.682-.498l-11.37 11.257a1.65 1.65 0 0 1-.469-1.16l16 .005zM25.681-.498a14.552 14.552 0 0 0-9.98-4.3l-.396 15.995a1.452 1.452 0 0 1-.995-.438L25.68-.498zM27 4.062a13.04 13.04 0 0 0-9.148 3.741l11.226 11.401a2.96 2.96 0 0 1-2.077.858v-16zm-9.148 3.741A12.888 12.888 0 0 0 14 16.985h16c0 .856-.347 1.652-.923 2.219L17.851 7.803zM14 16.985c0 2.423.979 4.722 2.68 6.397l11.226-11.401A7.023 7.023 0 0 1 30 16.985H14zm2.68 6.396A9.008 9.008 0 0 0 23 25.969v-16a6.99 6.99 0 0 1 4.906 2.011L16.68 23.381zM23 25.969a9.008 9.008 0 0 0 6.32-2.588L18.094 11.98A6.99 6.99 0 0 1 23 9.969v16zm6.32-2.588A8.979 8.979 0 0 0 32 16.984H16c0-1.901.768-3.699 2.094-5.004L29.32 23.381zM32 16.985a5.08 5.08 0 0 1-.875 2.851l-13.239-8.985A10.924 10.924 0 0 0 16 16.984h16zm-.875 2.851a5.006 5.006 0 0 1-2.252 1.827L22.831 6.848a10.986 10.986 0 0 0-4.945 4.003l13.239 8.985zm-2.252 1.827a4.96 4.96 0 0 1-2.825.275l3.075-15.702a11.049 11.049 0 0 0-6.292.611l6.042 14.815zm-2.825.275a4.984 4.984 0 0 1-2.539-1.342L34.735 9.195a11.023 11.023 0 0 0-5.611-2.959l-3.075 15.702zm-2.54-1.342a5.063 5.063 0 0 1-1.408-2.604l15.683-3.168a10.937 10.937 0 0 0-3.05-5.629L23.507 20.596zm-1.407-2.604a5.082 5.082 0 0 1 .297-2.98l14.748 6.204a10.917 10.917 0 0 0 .638-6.393l-15.683 3.168zm.297-2.979a5.042 5.042 0 0 1 1.872-2.256l8.794 13.367a10.963 10.963 0 0 0 4.082-4.907l-14.748-6.204zm1.872-2.256a4.965 4.965 0 0 1 2.73-.819v16c2.148 0 4.258-.627 6.064-1.814L24.27 12.757zm2.73-.819H1v16h26v-16zm-26 0a9.008 9.008 0 0 0-6.32 2.588L5.906 25.927A6.99 6.99 0 0 1 1 27.938v-16zm-6.32 2.588A8.979 8.979 0 0 0-8 20.923H8a7.021 7.021 0 0 1-2.094 5.004L-5.32 14.526zM-8 20.923c0 2.423.979 4.722 2.68 6.397L5.906 15.919A7.023 7.023 0 0 1 8 20.923H-8zm2.68 6.397A9.008 9.008 0 0 0 1 29.908v-16a6.99 6.99 0 0 1 4.906 2.011L-5.32 27.32zM1 29.908h19.5v-16H1v16zm19.484 0a5.479 5.479 0 0 1-3.842-1.586L27.89 16.943a10.52 10.52 0 0 0-7.375-3.035l-.031 16zm-3.842-1.587a5.557 5.557 0 0 1-1.647-3.964l16 .032a10.444 10.444 0 0 0-3.104-7.448L16.643 28.32zm-1.647-3.963a5.555 5.555 0 0 1 1.663-3.956l11.203 11.423a10.442 10.442 0 0 0 3.134-7.435l-16-.032zm1.663-3.956a5.478 5.478 0 0 1 3.848-1.571l-.032 16a10.52 10.52 0 0 0 7.386-3.006L16.657 20.402zm3.826-1.571a5.442 5.442 0 0 1 3.485 1.26L13.746 32.399a10.554 10.554 0 0 0 6.749 2.433l-.011-16zm3.486 1.259a5.518 5.518 0 0 1 1.909 3.307l-15.766 2.724a10.474 10.474 0 0 0 3.634 6.277L23.97 20.09zm1.914 3.334-.01-.059-15.776 2.67.01.059 15.776-2.67zm.027.185a8.983 8.983 0 0 0-1.201-3.404l-13.709 8.25a7.025 7.025 0 0 1-.94-2.665l15.851-2.181zm-1.201-3.404a8.998 8.998 0 0 0-2.419-2.638l-9.404 12.945a7.002 7.002 0 0 1-1.886-2.057l13.709-8.25zm-2.419-2.637a9.026 9.026 0 0 0-3.224-1.479l-3.678 15.572a7 7 0 0 1-2.503-1.148l9.404-12.945zm-3.224-1.479a9.02 9.02 0 0 0-3.529-.123l2.586 15.79a6.974 6.974 0 0 1-2.734-.095l3.678-15.572zm-3.529-.123a9.017 9.017 0 0 0-3.315 1.248l8.473 13.572a7.006 7.006 0 0 1-2.572.969l-2.586-15.79zm-3.315 1.248a9.008 9.008 0 0 0-2.595 2.456l13.089 9.202a7.017 7.017 0 0 1-2.021 1.914l-8.473-13.572zm-2.595 2.457a8.962 8.962 0 0 0-1.439 3.306l15.654 3.31a7.032 7.032 0 0 1-1.126 2.586L9.628 19.671zm-1.439 3.305a8.97 8.97 0 0 0-.019 3.62l15.688-3.146a7.023 7.023 0 0 1-.015 2.837l-15.654-3.31zm-.063 3.382.01.059 15.776-2.67-.01-.059-15.776 2.67zm.013.073a12.446 12.446 0 0 0 4.309 7.464l10.237-12.297a3.555 3.555 0 0 1 1.225 2.135L8.139 26.431zm4.308 7.464a12.566 12.566 0 0 0 8.044 2.905l-.003-16a3.43 3.43 0 0 1 2.196.798L12.447 33.895zm8.04 2.905a12.545 12.545 0 0 0 8.796-3.59L18.07 21.796a3.46 3.46 0 0 1 2.424-.997l-.007 16zm8.796-3.59A12.402 12.402 0 0 0 33 24.383l-16-.029a3.593 3.593 0 0 1 1.07-2.558L29.283 33.21zM33 24.369c0-2.576-.797-4.981-2.142-6.96l-13.231 8.996a3.642 3.642 0 0 1-.626-2.037h16zm-8.758 5.539H27v-16h-2.758v16zm2.758 0a13.04 13.04 0 0 0 9.148-3.741L24.922 14.766a2.96 2.96 0 0 1 2.077-.858v16zm9.148-3.742A12.888 12.888 0 0 0 40 16.984H24c0-.856.347-1.652.923-2.219l11.226 11.401zM40 16.985c0-3.468-1.4-6.768-3.852-9.182L24.922 19.204a3.115 3.115 0 0 1-.923-2.219h16zm-3.852-9.182A13.036 13.036 0 0 0 27 4.062v16a2.96 2.96 0 0 1-2.077-.858L36.149 7.803z" />
        </symbol>
        <symbol id="icon-air-conditioner" viewBox="0 0 32 32">
            <path stroke-linejoin="round" stroke-linecap="round" stroke-width="2.4"
                d="M28.571 1.143H3.428a2.287 2.287 0 0 0-2.285 2.285v11.429a2.287 2.287 0 0 0 2.285 2.285h25.143a2.287 2.287 0 0 0 2.286-2.285V3.428a2.283 2.283 0 0 0-2.286-2.285z" />
            <path stroke-linejoin="round" stroke-linecap="round" stroke-width="2.4"
                d="M25.143 17.143v-4.571a2.283 2.283 0 0 0-2.286-2.285H9.143a2.287 2.287 0 0 0-2.285 2.285v4.571M5.714 28.572h.229a3.2 3.2 0 0 0 3.2-3.2v-2.514m17.143 5.714h-.229a3.2 3.2 0 0 1-3.2-3.2v-2.514M16 30.857v-8" />
        </symbol>
        <symbol id="icon-bed" viewBox="0 0 32 32">
            <path stroke="#101828" fill="white" stroke-linejoin="round" stroke-linecap="round" stroke-miterlimit="4"
                stroke-width="2.24"
                d="M3 26v-7c0.003-1.060 0.426-2.076 1.175-2.825s1.765-1.172 2.825-1.175h18c1.060 0.003 2.076 0.426 2.825 1.175s1.172 1.765 1.175 2.825v7M24 15h-18v-6.5c0.002-0.662 0.266-1.297 0.734-1.766s1.103-0.732 1.766-0.734h15c0.662 0.002 1.297 0.266 1.766 0.734s0.732 1.103 0.734 1.766v6.5h-2z">
            </path>
            <path stroke-linejoin="round" stroke-linecap="round" stroke-miterlimit="4" stroke-width="2.24"
                d="M3 26v-0.5c0.001-0.397 0.16-0.778 0.441-1.059s0.662-0.44 1.059-0.441h23c0.397 0.001 0.778 0.16 1.059 0.441s0.44 0.662 0.441 1.059v0.5M7 15v-1c0.002-0.53 0.213-1.038 0.587-1.413s0.883-0.586 1.413-0.587h5c0.53 0.002 1.038 0.213 1.413 0.587s0.586 0.883 0.587 1.413M16 14v1M16 14c0.001-0.53 0.213-1.038 0.587-1.413s0.883-0.586 1.413-0.587h5c0.53 0.002 1.038 0.213 1.413 0.587s0.586 0.883 0.587 1.413v1">
            </path>
        </symbol>
        <symbol id="icon-calendar" viewBox="0 0 32 32">
            <path stroke-linejoin="round" stroke-linecap="round" stroke-width="2.4"
                d="M25.333 5.333H6.666A2.667 2.667 0 0 0 3.999 8v18.667a2.667 2.667 0 0 0 2.667 2.667h18.667A2.667 2.667 0 0 0 28 26.667V8a2.667 2.667 0 0 0-2.667-2.667zM21.333 2.667V8M10.667 2.667V8M4 13.333h24" />
        </symbol>
        <symbol id="icon-camper" viewBox="0 0 32 32">
            <path
                d="M1.826 6.06h8.686a.276.276 0 0 0 .194-.079l.834-.814c.243-.237.565-.367.908-.367H25.62a1.84 1.84 0 0 1 1.523.795l1.579 2.31c.224.328.244.747.054 1.095s-.56.563-.964.563h-6.789v.669H24.5c.922 0 1.751.534 2.112 1.361l2.036 4.655 1.783.696c.952.372 1.568 1.258 1.568 2.259v4.311c0 .643-.536 1.166-1.195 1.166h-2.075c-.241 1.427-1.515 2.52-3.045 2.52s-2.804-1.092-3.045-2.52H11.297c-.241 1.427-1.515 2.52-3.045 2.52s-2.804-1.092-3.045-2.52H1.062c-.586 0-1.063-.465-1.063-1.037V7.84c0-.982.819-1.781 1.826-1.781zm23.859 20.156c1.146 0 2.078-.909 2.078-2.027s-.932-2.027-2.078-2.027-2.078.909-2.078 2.027.932 2.027 2.078 2.027zm-4.661-2.52h1.615l.014-.073a2.138 2.138 0 0 1 .037-.165l.006-.024a2.12 2.12 0 0 1 .04-.136l.013-.039c.01-.032.021-.063.033-.094l.02-.05a1.377 1.377 0 0 1 .056-.133l.035-.076.027-.053.038-.072a1.353 1.353 0 0 1 .071-.122l.03-.05.046-.07.031-.046c.017-.025.036-.049.054-.074l.028-.039.076-.094.011-.014.092-.104.03-.031.067-.069.039-.037.063-.059.043-.038.063-.054.046-.037.065-.05.048-.035.068-.047.048-.032a1.8 1.8 0 0 1 .073-.046l.048-.029.082-.046.042-.023.118-.059.009-.004c.043-.02.086-.039.13-.057l.043-.017.091-.035.052-.018.084-.028.057-.017.082-.023.06-.015a1.11 1.11 0 0 1 .083-.018l.061-.013.085-.015a2.218 2.218 0 0 1 .15-.02c.019-.002.038-.005.058-.006a1.68 1.68 0 0 1 .1-.007l.049-.003a2.514 2.514 0 0 1 .302 0c.017 0 .033.002.049.003l.1.007.058.006.09.011.061.009a1.159 1.159 0 0 1 .146.028l.083.018.06.015.082.023.057.017.084.028.052.018.091.035.043.017c.044.018.087.037.13.057l.009.004.118.059.042.023.082.046.048.029.073.046.048.032.068.047a1.456 1.456 0 0 1 .113.085l.046.037.063.054.043.038.063.059a1.328 1.328 0 0 1 .106.106l.03.031c.031.034.062.068.092.104l.011.014a3.464 3.464 0 0 1 .158.207l.031.046.046.07.03.05.042.07.029.052.038.072.027.053.035.076.023.052.033.081.02.05.033.094.013.039.04.136.006.024c.01.038.019.076.027.115l.01.05.014.073h2.074a.184.184 0 0 0 .186-.182v-2.062h-.787v-.984h.787v-1.264c0-.596-.366-1.124-.933-1.345l-1.888-.737h-7.146v6.574zm0-7.558h6.48l-1.818-4.158a1.287 1.287 0 0 0-1.185-.763h-3.477v4.921zM8.252 26.216c1.146 0 2.078-.909 2.078-2.027s-.932-2.027-2.078-2.027a1.91 1.91 0 0 0-.107.003c-.955.047-1.742.727-1.929 1.616l-.019.1a1.957 1.957 0 0 0-.024.308c0 1.118.932 2.027 2.078 2.027zm-7.243-5.748h.787v.984h-.787v2.192c0 .029.024.052.054.052h4.144l.014-.072.01-.051a2.031 2.031 0 0 1 .033-.138 2.092 2.092 0 0 1 .054-.176l.032-.093.02-.051.032-.08.024-.054.035-.074.027-.054.038-.072.029-.052c.014-.024.027-.047.042-.07a1.358 1.358 0 0 1 .077-.12.917.917 0 0 1 .031-.046l.053-.073.029-.04a3.305 3.305 0 0 1 .179-.212l.03-.032a2.148 2.148 0 0 1 .17-.163l.044-.038.063-.053.046-.037.065-.05.048-.035.067-.047.049-.033.072-.045.048-.029.081-.046.042-.023a2.121 2.121 0 0 1 .127-.063c.043-.02.086-.039.13-.057l.043-.017.091-.035.053-.018.084-.028.057-.017.082-.023.06-.015a1.11 1.11 0 0 1 .083-.018l.061-.013.085-.015a2.218 2.218 0 0 1 .151-.02c.019-.002.038-.005.058-.006a1.68 1.68 0 0 1 .1-.007l.049-.003a2.514 2.514 0 0 1 .302 0c.017 0 .033.002.049.003l.1.007.058.006.09.011.06.009a1.159 1.159 0 0 1 .146.028l.083.018.06.015.082.023.057.017.084.028a3.247 3.247 0 0 1 .144.053l.043.017c.044.018.087.037.13.057l.01.005.117.058.042.023a3.326 3.326 0 0 1 .129.075l.072.045.049.033.067.047a1.456 1.456 0 0 1 .113.085l.046.037.063.053.044.038.063.059.039.037c.023.022.045.046.067.069l.03.031c.031.034.062.068.092.104l.012.015c.025.031.051.062.075.094l.029.039.054.074.031.046.046.07.031.05.042.07.029.052.038.072.026.053.035.076.023.052.033.081.019.05c.012.031.022.063.033.095l.013.039.04.136.005.022.028.117.009.048.015.074h8.717V9.073c0-.272.226-.492.504-.492h7.293c.012 0 .051 0 .075-.044s.003-.074-.004-.084l-1.578-2.31a.825.825 0 0 0-.684-.357H12.453a.28.28 0 0 0-.195.079l-.834.814a1.29 1.29 0 0 1-.908.367H1.83a.808.808 0 0 0-.817.797V20.47z" />
            <path
                d="M14.081 9.838h3.191c.644 0 1.169.511 1.169 1.14V21.51a.498.498 0 0 1-.504.492h-4.52a.498.498 0 0 1-.504-.492V10.978c0-.629.524-1.14 1.169-1.14zm-.16 11.181h3.511v-5.787h-3.511v5.787zm0-6.771h3.511v-3.269a.158.158 0 0 0-.16-.156h-3.191c-.088 0-.16.07-.16.156v3.269zM3.875 9.838h6.17c.713 0 1.293.566 1.293 1.262v2.87c0 .696-.58 1.262-1.293 1.262h-6.17c-.713 0-1.293-.566-1.293-1.262V11.1c0-.696.581-1.262 1.294-1.262zM3.59 13.97c0 .153.127.278.284.278h6.17a.28.28 0 0 0 .284-.278V11.1a.282.282 0 0 0-.284-.278h-6.17a.28.28 0 0 0-.284.278v2.87z" />
        </symbol>
        <symbol id="icon-camper2" viewBox="0 0 32 32">
            <path
                d="M1.826 6.06h8.686a.276.276 0 0 0 .194-.079l.834-.814c.243-.237.565-.367.908-.367H25.62a1.84 1.84 0 0 1 1.523.795l1.579 2.31c.224.328.244.747.054 1.095s-.56.563-.964.563h-6.789v.669H24.5c.922 0 1.751.534 2.112 1.361l2.036 4.655 1.783.696c.952.372 1.568 1.258 1.568 2.259v4.311c0 .643-.536 1.166-1.195 1.166h-2.075c-.241 1.427-1.515 2.52-3.045 2.52s-2.804-1.092-3.045-2.52H11.297c-.241 1.427-1.515 2.52-3.045 2.52s-2.804-1.092-3.045-2.52H1.062c-.586 0-1.063-.465-1.063-1.037V7.84c0-.982.819-1.781 1.826-1.781zm23.859 20.156c1.146 0 2.078-.909 2.078-2.027s-.932-2.027-2.078-2.027-2.078.909-2.078 2.027.932 2.027 2.078 2.027zm-4.661-2.52h1.615l.014-.073a2.138 2.138 0 0 1 .037-.165l.006-.024a2.12 2.12 0 0 1 .04-.136l.013-.039c.01-.032.021-.063.033-.094l.02-.05a1.377 1.377 0 0 1 .056-.133l.035-.076.027-.053.038-.072a1.353 1.353 0 0 1 .071-.122l.03-.05.046-.07.031-.046c.017-.025.036-.049.054-.074l.028-.039.076-.094.011-.014.092-.104.03-.031.067-.069.039-.037.063-.059.043-.038.063-.054.046-.037.065-.05.048-.035.068-.047.048-.032a1.8 1.8 0 0 1 .073-.046l.048-.029.082-.046.042-.023.118-.059.009-.004c.043-.02.086-.039.13-.057l.043-.017.091-.035.052-.018.084-.028.057-.017.082-.023.06-.015a1.11 1.11 0 0 1 .083-.018l.061-.013.085-.015a2.218 2.218 0 0 1 .15-.02c.019-.002.038-.005.058-.006a1.68 1.68 0 0 1 .1-.007l.049-.003a2.514 2.514 0 0 1 .302 0c.017 0 .033.002.049.003l.1.007.058.006.09.011.061.009a1.159 1.159 0 0 1 .146.028l.083.018.06.015.082.023.057.017.084.028.052.018.091.035.043.017c.044.018.087.037.13.057l.009.004.118.059.042.023.082.046.048.029.073.046.048.032.068.047a1.456 1.456 0 0 1 .113.085l.046.037.063.054.043.038.063.059a1.328 1.328 0 0 1 .106.106l.03.031c.031.034.062.068.092.104l.011.014a3.464 3.464 0 0 1 .158.207l.031.046.046.07.03.05.042.07.029.052.038.072.027.053.035.076.023.052.033.081.02.05.033.094.013.039.04.136.006.024c.01.038.019.076.027.115l.01.05.014.073h2.074a.184.184 0 0 0 .186-.182v-2.062h-.787v-.984h.787v-1.264c0-.596-.366-1.124-.933-1.345l-1.888-.737h-7.146v6.574zm0-7.558h6.48l-1.818-4.158a1.287 1.287 0 0 0-1.185-.763h-3.477v4.921zM8.252 26.216c1.146 0 2.078-.909 2.078-2.027s-.932-2.027-2.078-2.027a1.91 1.91 0 0 0-.107.003c-.955.047-1.742.727-1.929 1.616l-.019.1a1.957 1.957 0 0 0-.024.308c0 1.118.932 2.027 2.078 2.027zm-7.243-5.748h.787v.984h-.787v2.192c0 .029.024.052.054.052h4.144l.014-.072.01-.051a2.031 2.031 0 0 1 .033-.138 2.092 2.092 0 0 1 .054-.176l.032-.093.02-.051.032-.08.024-.054.035-.074.027-.054.038-.072.029-.052c.014-.024.027-.047.042-.07a1.358 1.358 0 0 1 .077-.12.917.917 0 0 1 .031-.046l.053-.073.029-.04a3.305 3.305 0 0 1 .179-.212l.03-.032a2.148 2.148 0 0 1 .17-.163l.044-.038.063-.053.046-.037.065-.05.048-.035.067-.047.049-.033.072-.045.048-.029.081-.046.042-.023a2.121 2.121 0 0 1 .127-.063c.043-.02.086-.039.13-.057l.043-.017.091-.035.053-.018.084-.028.057-.017.082-.023.06-.015a1.11 1.11 0 0 1 .083-.018l.061-.013.085-.015a2.218 2.218 0 0 1 .151-.02c.019-.002.038-.005.058-.006a1.68 1.68 0 0 1 .1-.007l.049-.003a2.514 2.514 0 0 1 .302 0c.017 0 .033.002.049.003l.1.007.058.006.09.011.06.009a1.159 1.159 0 0 1 .146.028l.083.018.06.015.082.023.057.017.084.028a3.247 3.247 0 0 1 .144.053l.043.017c.044.018.087.037.13.057l.01.005.117.058.042.023a3.326 3.326 0 0 1 .129.075l.072.045.049.033.067.047a1.456 1.456 0 0 1 .113.085l.046.037.063.053.044.038.063.059.039.037c.023.022.045.046.067.069l.03.031c.031.034.062.068.092.104l.012.015c.025.031.051.062.075.094l.029.039.054.074.031.046.046.07.031.05.042.07.029.052.038.072.026.053.035.076.023.052.033.081.019.05c.012.031.022.063.033.095l.013.039.04.136.005.022.028.117.009.048.015.074h8.717V9.073c0-.272.226-.492.504-.492h7.293c.012 0 .051 0 .075-.044s.003-.074-.004-.084l-1.578-2.31a.825.825 0 0 0-.684-.357H12.453a.28.28 0 0 0-.195.079l-.834.814a1.29 1.29 0 0 1-.908.367H1.83a.808.808 0 0 0-.817.797V20.47z" />
            <path
                d="M14.081 9.838h3.191c.644 0 1.169.511 1.169 1.14V21.51a.498.498 0 0 1-.504.492h-4.52a.498.498 0 0 1-.504-.492V10.978c0-.629.524-1.14 1.169-1.14zm-.16 11.181h3.511v-5.787h-3.511v5.787zm0-6.771h3.511v-3.269a.158.158 0 0 0-.16-.156h-3.191c-.088 0-.16.07-.16.156v3.269z" />
        </symbol>
        <symbol id="icon-camper3" viewBox="0 0 32 32">
            <path
                d="M1.826 6.06h8.686a.276.276 0 0 0 .194-.079l.834-.814c.243-.237.565-.367.908-.367H25.62a1.84 1.84 0 0 1 1.523.795l1.579 2.31c.224.328.244.747.054 1.095s-.56.563-.964.563h-6.789v.669H24.5c.922 0 1.751.534 2.112 1.361l2.036 4.655 1.783.696c.952.372 1.568 1.258 1.568 2.259v4.311c0 .643-.536 1.166-1.195 1.166h-2.075c-.241 1.427-1.515 2.52-3.045 2.52s-2.804-1.092-3.045-2.52H11.297c-.241 1.427-1.515 2.52-3.045 2.52s-2.804-1.092-3.045-2.52H1.062c-.586 0-1.063-.465-1.063-1.037V7.84c0-.982.819-1.781 1.826-1.781zm23.859 20.156c1.146 0 2.078-.909 2.078-2.027s-.932-2.027-2.078-2.027-2.078.909-2.078 2.027.932 2.027 2.078 2.027zm-4.661-2.52h1.615l.014-.073a2.138 2.138 0 0 1 .037-.165l.006-.024a2.12 2.12 0 0 1 .04-.136l.013-.039c.01-.032.021-.063.033-.094l.02-.05a1.377 1.377 0 0 1 .056-.133l.035-.076.027-.053.038-.072a1.353 1.353 0 0 1 .071-.122l.03-.05.046-.07.031-.046c.017-.025.036-.049.054-.074l.028-.039.076-.094.011-.014.092-.104.03-.031.067-.069.039-.037.063-.059.043-.038.063-.054.046-.037.065-.05.048-.035.068-.047.048-.032a1.8 1.8 0 0 1 .073-.046l.048-.029.082-.046.042-.023.118-.059.009-.004c.043-.02.086-.039.13-.057l.043-.017.091-.035.052-.018.084-.028.057-.017.082-.023.06-.015a1.11 1.11 0 0 1 .083-.018l.061-.013.085-.015a2.218 2.218 0 0 1 .15-.02c.019-.002.038-.005.058-.006a1.68 1.68 0 0 1 .1-.007l.049-.003a2.514 2.514 0 0 1 .302 0c.017 0 .033.002.049.003l.1.007.058.006.09.011.061.009a1.159 1.159 0 0 1 .146.028l.083.018.06.015.082.023.057.017.084.028.052.018.091.035.043.017c.044.018.087.037.13.057l.009.004.118.059.042.023.082.046.048.029.073.046.048.032.068.047a1.456 1.456 0 0 1 .113.085l.046.037.063.054.043.038.063.059a1.328 1.328 0 0 1 .106.106l.03.031c.031.034.062.068.092.104l.011.014a3.464 3.464 0 0 1 .158.207l.031.046.046.07.03.05.042.07.029.052.038.072.027.053.035.076.023.052.033.081.02.05.033.094.013.039.04.136.006.024c.01.038.019.076.027.115l.01.05.014.073h2.074a.184.184 0 0 0 .186-.182v-2.062h-.787v-.984h.787v-1.264c0-.596-.366-1.124-.933-1.345l-1.888-.737h-7.146v6.574zm0-7.558h6.48l-1.818-4.158a1.287 1.287 0 0 0-1.185-.763h-3.477v4.921zM8.252 26.216c1.146 0 2.078-.909 2.078-2.027s-.932-2.027-2.078-2.027a1.91 1.91 0 0 0-.107.003c-.955.047-1.742.727-1.929 1.616l-.019.1a1.957 1.957 0 0 0-.024.308c0 1.118.932 2.027 2.078 2.027zm-7.243-5.748h.787v.984h-.787v2.192c0 .029.024.052.054.052h4.144l.014-.072.01-.051a2.031 2.031 0 0 1 .033-.138 2.092 2.092 0 0 1 .054-.176l.032-.093.02-.051.032-.08.024-.054.035-.074.027-.054.038-.072.029-.052c.014-.024.027-.047.042-.07a1.358 1.358 0 0 1 .077-.12.917.917 0 0 1 .031-.046l.053-.073.029-.04a3.305 3.305 0 0 1 .179-.212l.03-.032a2.148 2.148 0 0 1 .17-.163l.044-.038.063-.053.046-.037.065-.05.048-.035.067-.047.049-.033.072-.045.048-.029.081-.046.042-.023a2.121 2.121 0 0 1 .127-.063c.043-.02.086-.039.13-.057l.043-.017.091-.035.053-.018.084-.028.057-.017.082-.023.06-.015a1.11 1.11 0 0 1 .083-.018l.061-.013.085-.015a2.218 2.218 0 0 1 .151-.02c.019-.002.038-.005.058-.006a1.68 1.68 0 0 1 .1-.007l.049-.003a2.514 2.514 0 0 1 .302 0c.017 0 .033.002.049.003l.1.007.058.006.09.011.06.009a1.159 1.159 0 0 1 .146.028l.083.018.06.015.082.023.057.017.084.028a3.247 3.247 0 0 1 .144.053l.043.017c.044.018.087.037.13.057l.01.005.117.058.042.023a3.326 3.326 0 0 1 .129.075l.072.045.049.033.067.047a1.456 1.456 0 0 1 .113.085l.046.037.063.053.044.038.063.059.039.037c.023.022.045.046.067.069l.03.031c.031.034.062.068.092.104l.012.015c.025.031.051.062.075.094l.029.039.054.074.031.046.046.07.031.05.042.07.029.052.038.072.026.053.035.076.023.052.033.081.019.05c.012.031.022.063.033.095l.013.039.04.136.005.022.028.117.009.048.015.074h8.717V9.073c0-.272.226-.492.504-.492h7.293c.012 0 .051 0 .075-.044s.003-.074-.004-.084l-1.578-2.31a.825.825 0 0 0-.684-.357H12.453a.28.28 0 0 0-.195.079l-.834.814a1.29 1.29 0 0 1-.908.367H1.83a.808.808 0 0 0-.817.797V20.47z" />
            <path
                d="M3.875 9.838h6.17c.713 0 1.293.566 1.293 1.262v2.87c0 .696-.58 1.262-1.293 1.262h-6.17c-.713 0-1.293-.566-1.293-1.262V11.1c0-.696.581-1.262 1.294-1.262zm-.284 4.132c0 .153.127.278.284.278h6.17a.28.28 0 0 0 .284-.278V11.1a.282.282 0 0 0-.284-.278h-6.17a.28.28 0 0 0-.284.278v2.87z" />
        </symbol>
        <symbol id="icon-cd" viewBox="0 0 32 32">
            <path stroke-width="2.4" d="M16 28c6.627 0 12-5.373 12-12S22.627 4 16 4 4 9.373 4 16s5.373 12 12 12z" />
            <path stroke-linecap="round" stroke-width="2.4" d="M8.667 16A7.333 7.333 0 0 1 16 8.667" />
            <path stroke-width="2.4" d="M16 19.333a3.333 3.333 0 1 0 0-6.665 3.333 3.333 0 0 0 0 6.665z" />
        </symbol>
        <symbol id="icon-automatic" width="20" height="20" viewBox="0 0 20 20" fill="none">
            <path
                d="M14.1667 9.16667H15.4167C15.7482 9.16667 16.0661 9.03497 16.3006 8.80055C16.535 8.56613 16.6667 8.24819 16.6667 7.91667C16.6667 7.58515 16.535 7.2672 16.3006 7.03278C16.0661 6.79836 15.7482 6.66667 15.4167 6.66667H14.1667V10.8333M14.1667 14.1667V17.5H15C15.442 17.5 15.866 17.3244 16.1785 17.0118C16.4911 16.6993 16.6667 16.2754 16.6667 15.8333C16.6667 15.3913 16.4911 14.9674 16.1785 14.6548C15.866 14.3423 15.442 14.1667 15 14.1667H14.1667ZM2.5 4.16667C2.5 4.60869 2.67559 5.03262 2.98816 5.34518C3.30072 5.65774 3.72464 5.83333 4.16667 5.83333C4.60869 5.83333 5.03262 5.65774 5.34518 5.34518C5.65774 5.03262 5.83333 4.60869 5.83333 4.16667C5.83333 3.72464 5.65774 3.30072 5.34518 2.98816C5.03262 2.67559 4.60869 2.5 4.16667 2.5C3.72464 2.5 3.30072 2.67559 2.98816 2.98816C2.67559 3.30072 2.5 3.72464 2.5 4.16667Z"
                stroke="#101828" stroke-width="1.5" stroke-linecap="round" stroke-linejoin="round" />
            <path
                d="M4.16675 5.83331V8.33331C4.16675 8.55433 4.25455 8.76629 4.41083 8.92257C4.56711 9.07885 4.77907 9.16665 5.00008 9.16665H7.50008M7.50008 9.16665V15C7.50008 15.221 7.58788 15.433 7.74416 15.5892C7.90044 15.7455 8.1124 15.8333 8.33341 15.8333H10.8334M7.50008 9.16665H10.8334"
                stroke="#101828" stroke-width="1.5" stroke-linecap="round" stroke-linejoin="round" />
        </symbol>
        <symbol id="icon-freezer" viewBox="0 0 32 32">
            <path stroke-linejoin="round" stroke-linecap="round" stroke-width="2.08"
                d="M23.4 3H8.607a2 2 0 0 0-2 2v20.387a2 2 0 0 0 2 2H23.4a2 2 0 0 0 2-2V5a2 2 0 0 0-2-2z" />
            <path stroke-linejoin="round" stroke-linecap="round" stroke-width="2.08"
                d="M6.607 13.127h18.787m-15.081-2.56v-4.04m0 12.913V15.4M8.427 27.387v.7a.911.911 0 0 0 .907.913h1.647a.911.911 0 0 0 .914-.914v-.7m8.205.001v.7a.913.913 0 0 0 .914.914h1.653a.913.913 0 0 0 .914-.914v-.7" />
        </symbol>
        <symbol id="icon-gas" viewBox="0 0 32 32">
            <path
                d="M25.072 13.991c-.368-.453-.816-.846-1.232-1.239-1.072-.907-2.288-1.556-3.311-2.508-2.384-2.206-2.912-5.848-1.392-8.644-1.52.348-2.848 1.133-3.983 1.995-4.143 3.143-5.775 8.689-3.823 13.449.064.151.128.302.128.499 0 .332-.24.635-.56.756-.368.151-.752.06-1.056-.181a.901.901 0 0 1-.224-.257c-1.808-2.161-2.096-5.259-.88-7.737-2.672 2.055-4.127 5.531-3.919 8.81.096.756.192 1.511.464 2.267.224.907.656 1.813 1.136 2.614 1.728 2.614 4.719 4.488 7.935 4.866 3.423.408 7.087-.181 9.71-2.418 2.927-2.508 3.951-6.528 2.448-9.974l-.208-.393c-.336-.695-1.232-1.904-1.232-1.904zm-5.055 9.521c-.448.363-1.184.756-1.76.907-1.792.604-3.583-.242-4.639-1.239 1.904-.423 3.039-1.753 3.375-3.098.272-1.209-.24-2.206-.448-3.37-.192-1.118-.16-2.07.272-3.113.304.574.624 1.148 1.008 1.602 1.232 1.511 3.167 2.176 3.583 4.231.064.212.096.423.096.65.048 1.239-.528 2.599-1.488 3.43z" />
        </symbol>
        <symbol id="icon-heart-default" viewBox="0 0 35 32">
            <path stroke="#101828" fill="white" stroke-linejoin="round" stroke-linecap="round" stroke-miterlimit="4"
                stroke-width="3.3455"
                d="M30.313 5.251c-0.743-0.743-1.625-1.333-2.596-1.735s-2.011-0.609-3.062-0.609-2.091 0.207-3.062 0.609c-0.971 0.402-1.853 0.992-2.596 1.735l-1.542 1.542-1.542-1.542c-1.501-1.501-3.536-2.344-5.658-2.344s-4.158 0.843-5.658 2.344c-1.501 1.501-2.344 3.536-2.344 5.658s0.843 4.158 2.344 5.658l12.858 12.858 12.858-12.858c0.743-0.743 1.333-1.625 1.735-2.596s0.609-2.011 0.609-3.062-0.207-2.091-0.609-3.062c-0.402-0.971-0.992-1.853-1.735-2.596z">
            </path>
        </symbol>
        <symbol id="icon-hob" viewBox="0 0 32 32">
            <path stroke-width="2.4"
                d="M12 6.667h16a1.335 1.335 0 0 1 1.334 1.334v17.333A1.335 1.335 0 0 1 28 26.668H12m0-20.001H4a1.33 1.33 0 0 0-1.333 1.334v17.333A1.333 1.333 0 0 0 4 26.668h8m0-20.001v20" />
            <path stroke-linejoin="round" stroke-linecap="round" stroke-width="2.4"
                d="M7.333 11.333V14m17.334-3.333-8 11.333" />
            <path
                d="M8.667 18A1.333 1.333 0 1 0 6 18a1.333 1.333 0 0 0 2.667 0zM8.667 22A1.333 1.333 0 1 0 6 22a1.333 1.333 0 0 0 2.667 0z" />
        </symbol>
        <symbol id="icon-kitchen" viewBox="0 0 32 32">
            <path stroke="#101828" fill="white" stroke-linejoin="round" stroke-linecap="round" stroke-miterlimit="4"
                stroke-width="2.4"
                d="M25.333 20v-16c-6.421 6.125-6.697 11.092-6.667 16h6.667zM25.333 20v8h-1.333v-4M10.667 5.333v22.667M6.667 5.333v4c0 1.061 0.421 2.078 1.172 2.828s1.768 1.172 2.828 1.172c1.061 0 2.078-0.421 2.828-1.172s1.172-1.768 1.172-2.828v-4">
            </path>
        </symbol>
        <symbol id="icon-location" viewBox="0 0 32 32">
            <path stroke="#101828" fill="white" stroke-linejoin="round" stroke-linecap="round" stroke-miterlimit="4"
                stroke-width="2.6"
                d="M28 13.333c0 9.333-12 17.333-12 17.333s-12-8-12-17.333c0-3.183 1.264-6.235 3.515-8.485s5.303-3.515 8.485-3.515c3.183 0 6.235 1.264 8.485 3.515s3.515 5.303 3.515 8.485z">
            </path>
            <path stroke-linejoin="round" stroke-linecap="round" stroke-miterlimit="4" stroke-width="2.6"
                d="M16 17.333c2.209 0 4-1.791 4-4s-1.791-4-4-4c-2.209 0-4 1.791-4 4s1.791 4 4 4z"></path>
        </symbol>
        <symbol id="icon-microwave" viewBox="0 0 32 32">
            <path stroke-linejoin="round" stroke-linecap="round" stroke-width="2.24"
                d="M29.714 5.714H2.285a1.14 1.14 0 0 0-1.143 1.143v18.286a1.14 1.14 0 0 0 1.143 1.143h27.429a1.14 1.14 0 0 0 1.143-1.143V6.857a1.14 1.14 0 0 0-1.143-1.143z" />
            <path stroke-linejoin="round" stroke-linecap="round" stroke-width="2.24"
                d="M25.143 11.428h1.143M25.143 16h1.143m-6.858-5.714H6.857a1.14 1.14 0 0 0-1.143 1.143v9.143a1.14 1.14 0 0 0 1.143 1.143h12.571a1.14 1.14 0 0 0 1.143-1.143v-9.143a1.14 1.14 0 0 0-1.143-1.143z" />
        </symbol>
        <symbol id="icon-petrol" viewBox="0 0 32 32">
            <path
                d="m26.36 9.64.013-.013-4.96-4.96L20 6.08l2.813 2.813a3.324 3.324 0 0 0-1.17 5.464 3.333 3.333 0 0 0 2.357.976c.48 0 .92-.107 1.333-.28v9.613a1.335 1.335 0 0 1-2.277.943 1.335 1.335 0 0 1-.391-.943v-6a2.668 2.668 0 0 0-2.667-2.667h-1.333V6.666a2.668 2.668 0 0 0-2.667-2.667h-8a2.668 2.668 0 0 0-2.667 2.667v21.333h13.333v-10h2v6.667a3.333 3.333 0 1 0 6.667-.001V11.998c0-.92-.373-1.76-.973-2.36zM16 18v7.333H8V16h8v2zm0-4.667H8V6.666h8v6.667zm8 0a1.333 1.333 0 1 1-.002-2.665A1.333 1.333 0 0 1 24 13.333z" />
        </symbol>
        <symbol id="icon-radio" viewBox="0 0 32 32">
            <path stroke-width="2.08"
                d="M2.667 18.667c0-5.028 0-7.543 1.563-9.104C5.791 8 8.306 8 13.334 8h5.333c5.028 0 7.543 0 9.104 1.563 1.563 1.561 1.563 4.076 1.563 9.104s0 7.543-1.563 9.104c-1.561 1.563-4.076 1.563-9.104 1.563h-5.333c-5.028 0-7.543 0-9.104-1.563-1.563-1.561-1.563-4.076-1.563-9.104z" />
            <path stroke-width="2.08"
                d="M6.667 14.667A2.668 2.668 0 0 1 9.334 12h13.333a2.668 2.668 0 0 1 0 5.334H9.334a2.668 2.668 0 0 1-2.667-2.667zm5.333 8a2 2 0 1 1-4.001-.001 2 2 0 0 1 4.001.001z" />
            <path stroke-linecap="round" stroke-width="2.08" d="M20 15.333v2m-2.667 5.334H24M8.667 8 20 2.667" />
        </symbol>
        <symbol id="icon-route" viewBox="0 0 32 32">
            <path
                d="M6.667 4a2.667 2.667 0 1 0 0 5.334 2.667 2.667 0 0 0 0-5.334zM1.333 6.667a5.333 5.333 0 1 1 10.666 0 5.333 5.333 0 0 1-10.666 0zM25.333 22.667a2.667 2.667 0 1 0 0 5.334 2.667 2.667 0 0 0 0-5.334zM20 25.333a5.333 5.333 0 1 1 10.667 0 5.333 5.333 0 0 1-10.667 0z" />
            <path
                d="M13.333 6.667c0-.736.597-1.333 1.333-1.333h8.4c4.13 0 5.62 5.404 1.987 7.429L9.58 21.567a1.295 1.295 0 0 0 .686 2.434h7.067a1.333 1.333 0 0 1 0 2.666h-7.067c-4.13 0-5.619-5.404-1.987-7.429l15.473-8.804A1.295 1.295 0 0 0 23.066 8h-8.4a1.333 1.333 0 0 1-1.333-1.333z" />
        </symbol>
        <symbol id="icon-shower" viewBox="0 0 32 32">
            <path stroke-linejoin="round" stroke-linecap="round" stroke-width="2.56"
                d="m5.333 5.333 3.333 3.333M18 8.667a6.6 6.6 0 0 0-9.334 9.334M20 6.667 6.667 20m12 2.667v.013m-5.334-1.347v.013m4-4.013v.013m4-4.013v.013m-6.666 13.321v.013m8-8.013v.013m4-4.013v.013" />
        </symbol>
        <symbol id="icon-toilet-paper" viewBox="0 0 32 32">
            <path
                d="M24 4c1.939 0 3.269 1.647 4.04 3.313.761 1.653 1.224 3.811 1.287 6.145l.007.541v12.667a1.343 1.343 0 0 1-.409.962 1.352 1.352 0 0 1-.978.371l-.165-.019-3.781-.629-3.781.629a1.33 1.33 0 0 1-.483-.008l-.157-.041-3.579-1.193-3.579 1.193a1.327 1.327 0 0 1-1.135-.138 1.323 1.323 0 0 1-.61-.968l-.009-.159v-3.903c-.708.733-1.595 1.236-2.667 1.236-1.939 0-3.269-1.647-4.04-3.313-.819-1.78-1.293-4.145-1.293-6.687s.473-4.907 1.293-6.687c.735-1.592 1.981-3.164 3.78-3.303l.26-.011h16zm0 2.667H11.709c.12.213.229.429.329.647.821 1.78 1.295 4.145 1.295 6.687v10.817l2.245-.749c.274-.091.569-.091.843 0l3.687 1.229 3.673-.613c.144-.024.293-.024.437 0l2.448.409V14.001c0-2.245-.423-4.213-1.049-5.569C24.94 6.961 24.27 6.668 24 6.668zm-16 0c-.271 0-.94.293-1.617 1.764C5.756 9.787 5.334 11.755 5.334 14s.423 4.213 1.049 5.569C7.06 21.04 7.73 21.333 8 21.333s.94-.293 1.617-1.764c.627-1.356 1.049-3.324 1.049-5.569s-.423-4.213-1.049-5.569C8.94 6.96 8.27 6.667 8 6.667zm0 4.666c.736 0 1.333 1.193 1.333 2.667S8.736 16.667 8 16.667 6.667 15.474 6.667 14 7.264 11.333 8 11.333z" />
        </symbol>
        <symbol id="icon-tv" viewBox="0 0 32 32">
            <path stroke-linejoin="round" stroke-linecap="round" stroke-width="1.8"
                d="M24 26H8c-2.216 0-4-1.784-4-4V12c0-2.216 1.784-4 4-4h16c2.216 0 4 1.784 4 4v10c0 2.216-1.784 4-4 4zM12 30h8M16 8l6-6M16 8l-6-6" />
        </symbol>
        <symbol id="icon-users" viewBox="0 0 32 32">
            <path
                d="M9.067 24.133h-4.4c-.267 0-.4-.133-.533-.267s-.267-.4-.133-.667c.8-2.267 2.8-3.6 5.067-3.6 2.8 0 5.067-2.4 5.067-5.2s-2.267-5.467-5.067-5.467-5.067 2.4-5.067 5.333a5.69 5.69 0 0 0 1.333 3.6c-1.733.933-3.067 2.4-3.867 4.4-.267.933-.133 2.133.533 3.067s1.6 1.467 2.667 1.467h4.4c.8 0 1.333-.533 1.333-1.333s-.533-1.333-1.333-1.333zm-2.4-9.866c0-1.467 1.067-2.533 2.4-2.533s2.4 1.2 2.4 2.533c0 1.467-1.067 2.533-2.4 2.533s-2.4-1.2-2.4-2.533z" />
            <path
                d="M30.533 21.467c-.933-2.533-2.8-4.4-4.933-5.467 1.2-1.067 1.867-2.667 1.867-4.533C27.467 8 24.8 5.2 21.6 5.2s-5.867 2.8-5.867 6.267A6.35 6.35 0 0 0 17.6 16c-2.133 1.067-4 2.933-4.933 5.467-.667 1.2-.4 2.533.267 3.6s1.867 1.6 3.067 1.6h11.067c1.2 0 2.4-.667 3.067-1.6.8-1.067.933-2.4.4-3.6zM18.267 11.6c0-2 1.467-3.6 3.2-3.6s3.2 1.6 3.2 3.6-1.467 3.6-3.2 3.6-3.2-1.733-3.2-3.6zm9.6 12c-.133.133-.4.533-.8.533H16c-.533 0-.8-.4-.8-.533-.133-.133-.4-.667-.133-1.2 1.067-2.8 3.733-4.667 6.533-4.667s5.467 1.867 6.533 4.667c.133.533-.133 1.067-.267 1.2z" />
        </symbol>
        <symbol id="icon-water" viewBox="0 0 32 32">
            <path stroke-miterlimit="10" stroke-width="2.4"
                d="M25 20c0 5.523-3.477 9-9 9s-9-3.477-9-9c0-5.927 6.452-13.928 8.431-16.242a.763.763 0 0 1 .57-.263.744.744 0 0 1 .57.263c1.978 2.314 8.43 10.316 8.43 16.242z" />
            <path stroke-linejoin="round" stroke-linecap="round" stroke-width="2.4"
                d="M21.5 20.5A4.5 4.5 0 0 1 17 25" />
        </symbol>
        <symbol id="icon-location" viewBox="0 0 32 32">
            <path stroke-linejoin="round" stroke-linecap="round" stroke-width="2.6"
                d="M28 13.333c0 9.333-12 17.333-12 17.333s-12-8-12-17.333a12.003 12.003 0 0 1 12-12 12.003 12.003 0 0 1 12 12z" />
            <path stroke-linejoin="round" stroke-linecap="round" stroke-width="2.6"
                d="M16 17.333a4 4 0 1 0 0-8 4 4 0 0 0 0 8z" />
        </symbol>
        <symbol id="icon-star" viewBox="0 0 32 32">
            <path fill="#ffc531" style="fill:var(--color1, #ffc531);stroke:var(--color1, #ffc531)" stroke="#ffc531"
                stroke-width="2.4"
                d="M12.4 9.394 16 2.572l3.6 6.822a2.2 2.2 0 0 0 1.571 1.141l7.601 1.315-5.376 5.532a2.2 2.2 0 0 0-.6 1.846l1.098 7.635-6.922-3.404a2.199 2.199 0 0 0-1.941 0l-6.922 3.404 1.098-7.635a2.2 2.2 0 0 0-.6-1.846L3.231 11.85l7.601-1.315a2.202 2.202 0 0 0 1.571-1.141z" />
        </symbol>
        <symbol id="icon-heart-favorite" viewBox="0 0 35 32">
            <path fill="#e44848" style="fill: var(--color1, #e44848); stroke: var(--color1, #e44848)" stroke="#e44848"
                stroke-linejoin="round" stroke-linecap="round" stroke-miterlimit="4" stroke-width="3.3455"
                d="M30.313 5.251c-0.743-0.743-1.625-1.333-2.596-1.735s-2.011-0.609-3.062-0.609-2.091 0.207-3.062 0.609c-0.971 0.402-1.853 0.992-2.596 1.735l-1.542 1.542-1.542-1.542c-1.501-1.501-3.536-2.344-5.658-2.344s-4.158 0.843-5.658 2.344c-1.501 1.501-2.344 3.536-2.344 5.658s0.843 4.158 2.344 5.658l12.858 12.858 12.858-12.858c0.743-0.743 1.333-1.625 1.735-2.596s0.609-2.011 0.609-3.062-0.207-2.091-0.609-3.062c-0.402-0.971-0.992-1.853-1.735-2.596z">
            </path>
        </symbol>
        <symbol id="icon-ac-2" width="20" height="20" viewBox="0 0 20 20" fill="none">
            <path stroke="#101828"
                d="M9.69 2C8.7518 2.00021 7.84263 2.32033 7.11706 2.90595C6.39148 3.49157 5.89429 4.30654 5.71 5.21231L5.6375 5.57169C5.61823 5.65208 5.61559 5.73546 5.62974 5.81688C5.64389 5.89829 5.67454 5.97606 5.71986 6.04556C5.76519 6.11507 5.82426 6.17487 5.89355 6.22142C5.96285 6.26797 6.04095 6.30031 6.12321 6.31651C6.20547 6.3327 6.29019 6.33243 6.37234 6.31571C6.45449 6.29898 6.53238 6.26614 6.60137 6.21915C6.67035 6.17216 6.72903 6.11198 6.77389 6.04219C6.81875 5.97239 6.84889 5.89442 6.8625 5.81292L6.93625 5.45477C7.0748 4.7832 7.46155 4.18615 8.02159 3.77926C8.58162 3.37237 9.27509 3.1846 9.96769 3.25232C10.6603 3.32004 11.3027 3.63843 11.7705 4.14581C12.2384 4.6532 12.4983 5.31348 12.5 5.99877C12.5 6.73333 12.2037 7.43782 11.6763 7.95735C11.1489 8.47687 10.4335 8.7689 9.6875 8.76923H0.625C0.45924 8.76923 0.300269 8.83407 0.183058 8.94947C0.0658481 9.06488 0 9.22141 0 9.38462C0 9.54783 0.0658481 9.70435 0.183058 9.81976C0.300269 9.93517 0.45924 10 0.625 10H9.6875C10.7475 9.97443 11.7554 9.54194 12.496 8.79485C13.2367 8.04775 13.6514 7.04521 13.6517 6.0012C13.652 4.95719 13.2379 3.9544 12.4978 3.20686C11.7576 2.45931 10.75 2.02621 9.69 2ZM16.875 7.53846C16.0462 7.53846 15.2513 7.86264 14.6653 8.43967C14.0792 9.01671 13.75 9.79933 13.75 10.6154C13.75 10.7786 13.8158 10.9351 13.9331 11.0505C14.0503 11.1659 14.2092 11.2308 14.375 11.2308C14.5408 11.2308 14.6997 11.1659 14.8169 11.0505C14.9342 10.9351 15 10.7786 15 10.6154C15 10.2502 15.11 9.89332 15.316 9.58972C15.522 9.28612 15.8149 9.04949 16.1575 8.90976C16.5001 8.77003 16.8771 8.73347 17.2408 8.8047C17.6045 8.87594 17.9386 9.05177 18.2008 9.30996C18.463 9.56815 18.6416 9.8971 18.714 10.2552C18.7863 10.6133 18.7492 10.9845 18.6073 11.3219C18.4654 11.6592 18.225 11.9475 17.9167 12.1504C17.6084 12.3533 17.2458 12.4615 16.875 12.4615H0.625C0.45924 12.4615 0.300269 12.5264 0.183058 12.6418C0.0658481 12.7572 0 12.9137 0 13.0769C0 13.2401 0.0658481 13.3967 0.183058 13.5121C0.300269 13.6275 0.45924 13.6923 0.625 13.6923H12.8125C13.2269 13.6931 13.624 13.856 13.9164 14.1451C14.2089 14.4342 14.3727 14.8258 14.3719 15.2338C14.371 15.6419 14.2056 16.0329 13.912 16.3208C13.6184 16.6087 13.2207 16.77 12.8062 16.7692C12.433 16.7695 12.0716 16.6396 11.7863 16.4026C11.501 16.1656 11.3101 15.8368 11.2475 15.4745L11.2413 15.4375C11.23 15.3559 11.2023 15.2773 11.1596 15.2065C11.117 15.1356 11.0603 15.0739 10.993 15.025C10.9257 14.9761 10.849 14.941 10.7677 14.9218C10.6863 14.9025 10.6019 14.8996 10.5194 14.9131C10.4368 14.9266 10.3579 14.9563 10.2872 15.0004C10.2166 15.0445 10.1556 15.1022 10.108 15.1699C10.0604 15.2376 10.0271 15.3141 10.01 15.3947C9.99298 15.4754 9.99254 15.5586 10.0087 15.6394L10.015 15.6763C10.1261 16.326 10.4675 16.916 10.9785 17.3414C11.4895 17.7668 12.1371 18.0001 12.8062 18C13.5528 18.0003 14.2691 17.7089 14.7976 17.1896C15.3261 16.6704 15.6237 15.9659 15.625 15.2308C15.625 14.6609 15.45 14.1317 15.1513 13.6923H16.875C17.7038 13.6923 18.4987 13.3681 19.0847 12.7911C19.6708 12.2141 20 11.4314 20 10.6154C20 9.79933 19.6708 9.01671 19.0847 8.43967C18.4987 7.86264 17.7038 7.53846 16.875 7.53846Z"
                fill="#101828" />
        </symbol>
    </defs>
</svg>